# File created by Blade
# Date/Time:  Wed Jan 21 17:05:57 2015
# Frame Rate: 120.000 fps
#------------------------------------------------------
:FULLY-SPECIFIED
:DEGREES
560
root 19.919356 35.839703 -21.036550 -174.747405 2.852959 -178.684229
Spine -12.289338 1.071397 -0.215327
Head 15.263957 -1.375480 2.476305
LeftShoulder -9.377706 -32.388615 19.523932
LeftArm 4.948179 7.470147 -5.722253
LeftForeArm 18.144650 -0.000000 -2.587533
LeftHand -4.967778 -0.000000 7.290984
LeftHandThumb1 -26.253704 0.000000 33.147579
RightShoulder -9.830916 -3.497093 -10.018069
RightArm 5.568925 41.359311 11.251378
RightForeArm -37.944331 -0.000000 3.672332
RightHand -5.691644 0.000000 1.553337
RightHandThumb1 -24.326973 -0.000000 -32.862282
LeftUpLeg 0.666434 15.684166 3.711479
LeftLeg -5.181904 -0.000000 0.000000
LeftFoot -16.627731 24.844456 -17.205644
LeftToeBase 23.970079 -0.000000 -0.000000
RightUpLeg -2.408499 -11.225143 0.276530
RightLeg -1.816390 -0.000000 0.000000
RightFoot -18.211611 -27.971085 18.203512
RightToeBase 22.508596 -0.000000 -0.000000
561
root 19.908788 35.833517 -21.085915 -174.502126 2.836493 -178.678727
Spine -12.773103 0.967748 -0.181979
Head 15.261464 -1.291232 2.508650
LeftShoulder -9.665467 -32.478244 19.659849
LeftArm 4.707407 7.417106 -5.700325
LeftForeArm 18.318836 -0.000000 -2.651447
LeftHand -5.008034 -0.000000 7.054855
LeftHandThumb1 -26.253704 0.000000 33.147579
RightShoulder -9.940997 -3.164246 -9.965632
RightArm 5.190052 40.890954 10.940108
RightForeArm -37.735484 -0.000000 3.671078
RightHand -5.569364 -0.000000 1.802414
RightHandThumb1 -24.326973 -0.000000 -32.862282
LeftUpLeg 0.570101 15.699878 3.651633
LeftLeg -5.333425 -0.000000 0.000000
LeftFoot -16.628857 24.821532 -17.192566
LeftToeBase 23.697336 -0.000000 -0.000000
RightUpLeg -2.449187 -11.320436 0.303845
RightLeg -2.062646 -0.000000 0.000000
RightFoot -18.168813 -27.937334 18.225312
RightToeBase 22.542999 -0.000000 -0.000000
562
root 19.900388 35.827989 -21.127120 -174.225319 2.856639 -178.674584
Spine -13.276298 0.893669 -0.158187
Head 15.252119 -1.197890 2.539762
LeftShoulder -9.905917 -32.503216 19.777348
LeftArm 4.431564 7.384417 -5.674919
LeftForeArm 18.252132 -0.000000 -2.678000
LeftHand -5.203462 -0.000000 6.985689
LeftHandThumb1 -26.253704 0.000000 33.147579
RightShoulder -10.061602 -3.067705 -9.944513
RightArm 4.917749 40.679625 10.854553
RightForeArm -37.733295 0.000000 3.749226
RightHand -5.615334 -0.000000 1.813976
RightHandThumb1 -24.326973 -0.000000 -32.862282
LeftUpLeg 0.394325 15.730733 3.581138
LeftLeg -5.407679 -0.000000 0.000000
LeftFoot -16.653792 24.819948 -17.169781
LeftToeBase 23.708723 -0.000000 -0.000000
RightUpLeg -2.540975 -11.245557 0.327170
RightLeg -2.299602 -0.000000 0.000000
RightFoot -18.131284 -28.039817 18.286866
RightToeBase 22.424525 -0.000000 -0.000000
563
root 19.892933 35.823460 -21.170645 -173.986481 2.874252 -178.673652
Spine -13.726518 0.852266 -0.138124
Head 15.224621 -1.129874 2.552780
LeftShoulder -10.098443 -32.544961 19.858456
LeftArm 4.119881 7.207872 -5.648378
LeftForeArm 18.243141 -0.000000 -2.638647
LeftHand -5.372390 -0.000000 6.869526
LeftHandThumb1 -26.253704 0.000000 33.147579
RightShoulder -10.277899 -3.027351 -9.900588
RightArm 4.777156 40.521258 10.799994
RightForeArm -37.592216 -0.000000 3.801111
RightHand -5.631525 -0.000000 2.053970
RightHandThumb1 -24.326973 -0.000000 -32.862282
LeftUpLeg 0.246359 15.704267 3.525200
LeftLeg -5.447008 -0.000000 0.000000
LeftFoot -16.689659 24.846672 -17.160710
LeftToeBase 23.664334 -0.000000 -0.000000
RightUpLeg -2.640687 -11.325006 0.354204
RightLeg -2.449468 -0.000000 0.000000
RightFoot -18.081149 -27.978375 18.207742
RightToeBase 22.524969 -0.000000 -0.000000
564
root 19.885145 35.820079 -21.208044 -173.757543 2.886865 -178.683547
Spine -14.129996 0.768911 -0.122032
Head 15.142413 -1.016735 2.568751
LeftShoulder -10.358859 -32.564735 19.955758
LeftArm 3.883383 7.066061 -5.606240
LeftForeArm 18.178225 0.000000 -2.684134
LeftHand -5.486232 0.000000 6.637804
LeftHandThumb1 -26.253704 0.000000 33.147579
RightShoulder -10.424900 -2.976642 -9.890457
RightArm 4.586475 40.458741 10.802885
RightForeArm -37.636144 0.000000 3.929723
RightHand -5.811020 -0.000000 2.148091
RightHandThumb1 -24.326973 -0.000000 -32.862282
LeftUpLeg 0.066477 15.605565 3.460715
LeftLeg -5.426346 -0.000000 0.000000
LeftFoot -16.785665 24.925954 -17.190574
LeftToeBase 23.684179 -0.000000 -0.000000
RightUpLeg -2.787454 -11.417521 0.374776
RightLeg -2.512375 -0.000000 0.000000
RightFoot -18.067964 -27.922080 18.161368
RightToeBase 22.495729 -0.000000 -0.000000
565
root 19.880439 35.816832 -21.256278 -173.626600 2.807997 -178.680243
Spine -14.415555 0.623965 -0.086586
Head 15.003537 -0.908603 2.600542
LeftShoulder -10.608847 -32.621094 20.078042
LeftArm 3.625101 6.808154 -5.619515
LeftForeArm 18.218284 -0.000000 -2.709074
LeftHand -5.649127 0.000000 6.591343
LeftHandThumb1 -26.253704 0.000000 33.147579
RightShoulder -10.560934 -2.743218 -9.885859
RightArm 4.278547 40.454587 10.721273
RightForeArm -37.929329 0.000000 4.128147
RightHand -5.969060 0.000000 2.386497
RightHandThumb1 -24.326973 -0.000000 -32.862282
LeftUpLeg 0.002371 15.462617 3.447618
LeftLeg -5.442266 -0.000000 0.000000
LeftFoot -16.842495 24.978591 -17.218496
LeftToeBase 23.629506 -0.000000 -0.000000
RightUpLeg -2.794077 -11.639695 0.395226
RightLeg -2.598422 -0.000000 0.000000
RightFoot -18.043121 -27.791129 18.147865
RightToeBase 22.509106 -0.000000 -0.000000
566
root 19.871014 35.813649 -21.294222 -173.423968 2.811816 -178.698775
Spine -14.764943 0.561139 -0.079431
Head 14.861432 -0.818708 2.614834
LeftShoulder -10.857665 -32.614753 20.172286
LeftArm 3.410635 6.556788 -5.605152
LeftForeArm 18.052960 -0.000000 -2.753296
LeftHand -5.701229 -0.000000 6.464202
LeftHandThumb1 -26.253704 0.000000 33.147579
RightShoulder -10.711139 -2.648957 -9.851059
RightArm 4.078134 40.610864 10.657986
RightForeArm -38.105463 -0.000000 4.176094
RightHand -5.971638 -0.000000 2.468173
RightHandThumb1 -24.326973 -0.000000 -32.862282
LeftUpLeg -0.167618 15.399572 3.379828
LeftLeg -5.396480 -0.000000 0.000000
LeftFoot -16.916519 25.018916 -17.230154
LeftToeBase 23.622136 -0.000000 -0.000000
RightUpLeg -2.937467 -11.714379 0.394018
RightLeg -2.615656 -0.000000 0.000000
RightFoot -18.048531 -27.730911 18.102638
RightToeBase 22.539772 -0.000000 -0.000000
567
root 19.863235 35.810818 -21.330799 -173.241400 2.794929 -178.719368
Spine -15.072985 0.484139 -0.079698
Head 14.678095 -0.725637 2.641623
LeftShoulder -11.074349 -32.686983 20.286102
LeftArm 3.110697 6.332802 -5.608637
LeftForeArm 17.914955 0.000000 -2.710095
LeftHand -5.875964 -0.000000 6.386931
LeftHandThumb1 -26.253704 0.000000 33.147579
RightShoulder -10.898932 -2.638091 -9.822911
RightArm 3.941649 40.715075 10.692696
RightForeArm -38.206336 0.000000 4.275794
RightHand -6.051314 -0.000000 2.505108
RightHandThumb1 -24.326973 -0.000000 -32.862282
LeftUpLeg -0.344071 15.321263 3.318250
LeftLeg -5.306725 -0.000000 0.000000
LeftFoot -17.013738 25.033800 -17.256817
LeftToeBase 23.604359 -0.000000 -0.000000
RightUpLeg -3.065644 -11.815843 0.394373
RightLeg -2.630359 -0.000000 0.000000
RightFoot -18.028604 -27.679696 18.045905
RightToeBase 22.645027 -0.000000 -0.000000
568
root 19.858241 35.807512 -21.369434 -173.087964 2.755583 -178.723703
Spine -15.333709 0.376828 -0.050433
Head 14.449136 -0.624201 2.649721
LeftShoulder -11.339136 -32.685855 20.415179
LeftArm 2.880716 5.978379 -5.641816
LeftForeArm 17.835517 -0.000000 -2.762918
LeftHand -5.875262 -0.000000 6.315780
LeftHandThumb1 -26.253704 0.000000 33.147579
RightShoulder -11.023338 -2.524059 -9.780698
RightArm 3.689036 40.698071 10.538505
RightForeArm -38.167763 -0.000000 4.210131
RightHand -5.805828 -0.000000 2.503437
RightHandThumb1 -24.326973 -0.000000 -32.862282
LeftUpLeg -0.471908 15.237782 3.282718
LeftLeg -5.255135 -0.000000 0.000000
LeftFoot -17.095934 25.065666 -17.235618
LeftToeBase 23.600467 -0.000000 -0.000000
RightUpLeg -3.160153 -11.931479 0.410226
RightLeg -2.643767 -0.000000 0.000000
RightFoot -18.007981 -27.680609 17.953538
RightToeBase 22.818270 -0.000000 -0.000000
